<svg width="268" height="89" viewBox="0 0 268 89" fill="none" xmlns="http://www.w3.org/2000/svg">
<g filter="url(#filter0_d)">
<path d="M4.93665 0H10.1369C11.1894 0 12.0561 0.888724 12.0561 1.96789V38.7865C12.0561 41.7065 11.8704 44.4362 11.5608 46.8485C11.2513 49.2607 10.8179 51.419 10.3227 53.3869C9.8274 55.3548 9.27022 57.0053 8.58923 58.5288C8.09396 59.608 7.5987 60.5602 7.10343 61.3854C6.73198 61.9568 6.17482 62.2742 5.49382 62.2742H1.90314C0.603063 62.2742 -0.325562 61.0046 0.107796 59.735C0.231613 59.2906 0.35543 58.8462 0.479246 58.4019C0.912604 56.8783 1.34596 55.1009 1.71741 53.133C2.08886 51.1651 2.3984 48.9433 2.64604 46.5945C2.89367 44.1823 3.01749 41.6431 3.01749 38.8499V2.09485C3.01749 0.888725 3.88421 0 4.93665 0Z" transform="translate(2 22.7256)" fill="#0000DD"></path>
<path d="M40.8595 20.5041C40.8595 23.6147 40.3643 26.4713 39.4356 29.0105C38.4451 31.5497 37.0831 33.7715 35.2878 35.549C33.4924 37.3899 31.3256 38.7865 28.7874 39.7387C26.2492 40.7544 23.4014 41.1987 20.1821 41.1987C17.1486 41.1987 14.3627 40.6909 11.8864 39.7387C9.41007 38.7865 7.30519 37.4534 5.50985 35.6759C3.77641 33.8985 2.41443 31.8036 1.42389 29.3279C0.495268 26.8522 0 24.059 0 20.9485C0 17.6475 0.495268 14.7274 1.42389 12.1247C2.41443 9.52205 3.77641 7.30023 5.63366 5.52279C7.49091 3.68186 9.65771 2.34877 12.3198 1.39657C14.9199 0.44436 17.8915 0 21.1727 0C24.33 0 27.1159 0.44436 29.5922 1.39657C32.0066 2.34877 34.1115 3.68186 35.783 5.45931C37.4546 7.23675 38.7546 9.39508 39.6214 11.9343C40.4262 14.41 40.8595 17.2666 40.8595 20.5041ZM31.8209 20.5041C31.8209 16.124 30.8923 12.8865 29.035 10.6647C27.1778 8.44288 24.4538 7.36371 20.8012 7.36371C17.1486 7.36371 14.3627 8.50636 12.3198 10.7917C10.2768 13.0769 9.28626 16.3779 9.28626 20.7581C9.28626 22.8529 9.53389 24.6938 10.0911 26.3443C10.6482 27.9948 11.3911 29.3914 12.3817 30.534C13.3722 31.6767 14.6104 32.5654 16.0343 33.1367C17.4582 33.7715 19.0678 34.0254 20.8631 34.0254C24.4538 34.0254 27.1778 32.8828 29.0969 30.534C30.8923 28.2487 31.8209 24.8843 31.8209 20.5041Z" transform="translate(16.4711 21.8373)" fill="#0000DD"></path>
<path d="M1.86038 0H7.06065C8.11309 0 8.97981 0.888724 8.97981 1.96789V17.3301C8.97981 17.7745 8.97981 18.2823 8.97981 18.9806C8.97981 19.6789 8.9179 20.3772 8.9179 21.0755C8.9179 21.7737 8.85599 22.472 8.85599 23.1703V23.8051C8.85599 24.2495 9.28935 24.5034 9.6608 24.313C10.0942 24.059 10.5275 23.8686 11.0228 23.6782C11.8895 23.2973 12.8181 22.9799 13.8087 22.7259C14.7992 22.472 15.7897 22.2816 16.8422 22.0911C17.8946 21.9007 18.8851 21.8372 19.8757 21.8372C22.7854 21.8372 25.3855 22.2816 27.6761 23.2338C29.9667 24.1225 31.886 25.4556 33.4956 27.1061C35.0433 28.7566 36.2814 30.7245 37.0862 33.0732C37.891 35.3585 38.3244 37.8977 38.3244 40.6909C38.3244 44.0553 37.7672 47.1024 36.7148 49.8955C35.6623 52.6252 34.1765 55.0374 32.1954 56.9418C30.2763 58.9097 27.9238 60.4332 25.138 61.4489C22.3521 62.4646 19.2566 63.0359 15.8516 63.0359C14.3039 63.0359 12.8181 62.9725 11.2704 62.8455C9.72271 62.7185 8.29882 62.5281 6.93683 62.2742C5.57487 62.0203 4.2748 61.7663 3.09854 61.5124C2.47946 61.3854 1.98419 61.195 1.42702 61.068C0.62221 60.8141 0.00312349 60.0524 0.00312349 59.1636V2.03137C-0.0587848 0.888724 0.807935 0 1.86038 0ZM8.9179 54.6565C8.9179 55.1009 9.22744 55.4818 9.6608 55.6087C10.2799 55.7357 10.9609 55.7992 11.6419 55.9261C12.6324 56.0531 13.6848 56.1166 14.8611 56.1166C17.4613 56.1166 19.69 55.6722 21.4853 54.847C23.2806 54.0217 24.7664 52.8791 25.8808 51.4825C26.9951 50.086 27.8 48.4989 28.2952 46.658C28.7905 44.8171 29.0381 42.9762 29.0381 41.0718C29.0381 39.0404 28.7905 37.2629 28.2334 35.7394C27.6762 34.2159 26.9332 32.9463 26.0046 31.9306C25.076 30.9149 23.8997 30.1531 22.5996 29.6453C21.2996 29.1375 19.8138 28.8835 18.2661 28.8835C17.5851 28.8835 16.7803 28.947 15.9755 29.074C15.1087 29.2009 14.242 29.3914 13.4372 29.6453C12.5705 29.8992 11.7657 30.1531 11.0228 30.534C10.4037 30.7879 9.90843 31.1053 9.41317 31.4227C9.16553 31.6132 8.97981 31.8671 8.97981 32.1845V54.6565H8.9179Z" transform="translate(60.4839)" fill="#0000DD"></path>
<path d="M26.3111 47.9276C26.3111 48.7529 25.8158 49.4511 25.0729 49.7686C24.2681 50.086 23.4014 50.3399 22.4727 50.4668C20.9869 50.7842 19.3773 50.9112 17.7677 50.9112C13.9913 50.9112 11.2673 49.832 9.65771 47.7372C8.04809 45.6423 7.24328 42.4048 7.24328 38.0247V17.4571C7.24328 17.1397 6.99565 16.8858 6.68611 16.8858H1.91916C0.866719 16.8858 0 15.997 0 14.9179V12.5056C0 11.4265 0.866719 10.5377 1.91916 10.5377H7.11946C7.3671 10.5377 7.55282 10.4108 7.61473 10.1568C8.11 8.56984 8.60526 6.91935 9.10053 5.20538C9.53389 3.80882 9.90534 2.47573 10.2768 1.20613C10.4625 0.507842 11.1435 0 11.8245 0C12.6293 0 13.6818 0 14.5485 0C15.4771 0 16.1581 0.761763 16.1581 1.65049V9.96641C16.1581 10.2838 16.4057 10.5377 16.7153 10.5377H25.011C26.0634 10.5377 26.9301 11.4265 26.9301 12.5056V14.9179C26.9301 15.997 26.0634 16.8858 25.011 16.8858H16.7153C16.4057 16.8858 16.1581 17.1397 16.1581 17.4571V39.4213C16.1581 40.8178 16.5295 41.897 17.2105 42.7857C17.8915 43.611 18.8821 44.0553 20.1821 44.0553C21.3584 44.0553 22.4108 43.9918 23.4014 43.8649C23.649 43.8649 23.8347 43.8014 24.0824 43.8014C25.1967 43.6744 26.2492 44.5632 26.2492 45.7693V47.9276H26.3111Z" transform="translate(96.5184 12.1887)" fill="#0000DD"></path>
<path d="M40.8595 20.5041C40.8595 23.6147 40.3643 26.4713 39.4356 29.0105C38.4451 31.5497 37.0831 33.7715 35.2878 35.549C33.4924 37.3899 31.3256 38.7865 28.7874 39.7387C26.2491 40.7544 23.4014 41.1987 20.1821 41.1987C17.0867 41.1987 14.3627 40.6909 11.8864 39.7387C9.41007 38.7865 7.30519 37.4534 5.50984 35.6759C3.77641 33.8985 2.41443 31.8036 1.4239 29.3279C0.495269 26.8522 0 24.059 0 20.9485C0 17.6475 0.495269 14.7274 1.4239 12.1247C2.41443 9.52205 3.7764 7.30023 5.63365 5.52279C7.49091 3.68186 9.6577 2.34877 12.3198 1.39657C14.9199 0.44436 17.8915 0 21.1727 0C24.33 0 27.1159 0.44436 29.5922 1.39657C32.0066 2.34877 34.1115 3.68186 35.783 5.45931C37.4546 7.23675 38.7546 9.39508 39.6214 11.9343C40.4262 14.41 40.8595 17.2666 40.8595 20.5041ZM31.8209 20.5041C31.8209 16.124 30.8923 12.8865 29.035 10.6647C27.1778 8.44288 24.4538 7.36371 20.8012 7.36371C17.1486 7.36371 14.3627 8.50636 12.3198 10.7917C10.2768 13.0769 9.28625 16.3779 9.28625 20.7581C9.28625 22.8529 9.53389 24.6938 10.0911 26.3443C10.6482 27.9948 11.3911 29.3914 12.3817 30.534C13.3722 31.6767 14.6104 32.5654 16.0343 33.1367C17.4582 33.7715 19.0678 34.0254 20.8631 34.0254C24.4538 34.0254 27.1778 32.8828 29.0969 30.534C30.8923 28.2487 31.8209 24.8843 31.8209 20.5041Z" transform="translate(121.653 21.8373)" fill="#0000DD"></path>
<path d="M32.0685 40.5004H26.8063C25.7539 40.5004 24.8872 39.6117 24.8872 38.5325V16.0605C24.8872 13.2674 24.3919 11.109 23.3395 9.649C22.287 8.18896 20.6774 7.42719 18.5725 7.42719C17.582 7.42719 16.6533 7.55415 15.7247 7.87155C14.7961 8.18896 13.9294 8.56984 13.0627 9.0142C12.2579 9.45856 11.453 9.9664 10.772 10.4742C10.153 10.9186 9.6577 11.363 9.22434 11.7439C9.10052 11.8708 9.03862 11.9978 9.03862 12.1247V38.4691C9.03862 39.5482 8.1719 40.4369 7.11946 40.4369H1.91915C0.866703 40.4369 0 39.5482 0 38.4691V2.92009C0 1.84093 0.866703 0.952204 1.91915 0.952204H6.93373C7.92426 0.952204 8.79098 1.77745 8.85289 2.79313L8.9148 4.31666C8.9148 4.57058 9.16243 4.63406 9.34816 4.5071C9.90533 4.06274 10.4625 3.5549 11.1435 3.11053C11.9483 2.53921 12.8769 1.96789 13.8056 1.52353C14.7961 1.07916 15.7866 0.698283 16.901 0.444363C17.9534 0.126961 19.1297 0 20.3059 0C23.2156 0 25.6301 0.571323 27.6111 1.71397C29.4684 2.79313 30.8923 4.25318 31.8828 6.15759C31.9447 6.34803 32.1923 6.34803 32.3162 6.22107C33.0591 5.52278 33.802 4.8245 34.7306 4.12622C35.7211 3.36445 36.7736 2.66617 37.8879 2.03137C39.0023 1.39657 40.1785 0.952204 41.4167 0.571321C42.6549 0.190439 43.893 0 45.1931 0C49.8362 0 53.2412 1.39657 55.4699 4.12622C57.6986 6.85587 58.751 10.7282 58.751 15.6796V38.4691C58.751 39.5482 57.8843 40.4369 56.8319 40.4369H51.5697C50.5172 40.4369 49.6505 39.5482 49.6505 38.4691V15.997C49.6505 13.2039 49.1552 11.0456 48.1028 9.58552C47.0504 8.12548 45.5026 7.36371 43.4597 7.36371C42.4072 7.36371 41.3548 7.55415 40.3643 7.87155C39.3737 8.25244 38.4451 8.63332 37.6403 9.14116C36.7736 9.649 36.0307 10.2203 35.3497 10.8551C34.7925 11.363 34.2972 11.8708 33.9258 12.3152C33.802 12.4421 33.802 12.6326 33.802 12.7595C33.8639 13.0769 33.8639 13.5213 33.9258 14.0291C33.9877 14.6639 33.9877 15.2353 33.9877 15.6796V38.4691C33.9877 39.6752 33.121 40.5004 32.0685 40.5004Z" transform="translate(165.546 21.7104)" fill="#0000DD"></path>
<path d="M0 20.3772C0 17.3301 0.495278 14.537 1.42391 12.0613C2.41444 9.52204 3.77642 7.42719 5.50986 5.58626C7.3052 3.80882 9.41008 2.41225 11.8864 1.46005C14.3627 0.507842 17.0867 0 20.1202 0C23.0918 0 25.692 0.444361 27.9207 1.33309C30.1494 2.22181 32.0685 3.49142 33.5543 5.07842C35.1021 6.72891 36.2164 8.6968 37.0212 11.109C37.7641 13.4578 38.1975 16.1875 38.1975 19.171V21.1389C38.1975 22.2181 37.3308 23.1068 36.2783 23.1068H9.34817C9.03863 23.1068 8.72909 23.4242 8.791 23.7416C8.97672 25.1382 9.34817 26.4078 9.96725 27.6774C10.6482 29.074 11.515 30.2801 12.6912 31.2323C13.8056 32.248 15.1676 33.0098 16.7153 33.5811C18.263 34.1524 19.9964 34.4063 21.8537 34.4063C22.968 34.4063 24.0824 34.2794 25.3205 34.0889C26.5587 33.8985 27.7969 33.5811 29.0969 33.2002C30.397 32.8193 31.6971 32.3115 32.9972 31.7401C33.3067 31.6132 33.6782 31.4227 33.9877 31.2958C35.2259 30.661 36.7117 31.6132 36.7117 33.0732V35.8664C36.7117 36.5646 36.3402 37.2629 35.7211 37.5803C33.6782 38.6595 31.5114 39.5482 29.2208 40.183C26.5587 40.9448 23.5871 41.3257 20.1821 41.3257C17.0248 41.3257 14.2389 40.8813 11.7626 39.9291C9.28626 38.9769 7.11947 37.6438 5.38604 35.8029C3.6526 34.0254 2.29062 31.8036 1.36199 29.2644C0.495275 26.5982 0 23.6781 0 20.3772ZM20.1202 7.23675C17.1486 7.23675 14.6723 7.99852 12.7531 9.58552C11.0197 11.0456 9.78153 13.0769 9.16245 15.6796C9.10054 16.0605 9.34817 16.3779 9.71962 16.3779H28.7874C29.0969 16.3779 29.3446 16.124 29.3446 15.7431C29.0969 13.0769 28.2302 10.9821 26.7444 9.52204C25.1348 7.99852 22.9061 7.23675 20.1202 7.23675Z" transform="translate(226.898 21.8373)" fill="#0000DD"></path>
<path d="M12.0721 12.1247H1.91916C0.866717 12.1247 0 11.236 0 10.1568V1.96789C0 0.888724 0.866717 0 1.91916 0H12.0721C13.1246 0 13.9913 0.888724 13.9913 1.96789V10.1568C13.9913 11.236 13.1246 12.1247 12.0721 12.1247Z" transform="translate(2.47949 5.64984)" fill="#DD0055"></path>
</g>
<defs>
<filter id="filter0_d" x="0" y="0" width="267.095" height="88.9997" filterUnits="userSpaceOnUse" color-interpolation-filters="sRGB">
<feFlood flood-opacity="0" result="BackgroundImageFix"></feFlood>
<feColorMatrix in="SourceAlpha" type="matrix" values="0 0 0 0 0 0 0 0 0 0 0 0 0 0 0 0 0 0 255 0"></feColorMatrix>
<feOffset dy="2"></feOffset>
<feGaussianBlur stdDeviation="1"></feGaussianBlur>
<feColorMatrix type="matrix" values="0 0 0 0 0 0 0 0 0 0 0 0 0 0 0 0 0 0 0.1 0"></feColorMatrix>
<feBlend mode="normal" in2="BackgroundImageFix" result="effect1_dropShadow"></feBlend>
<feBlend mode="normal" in="SourceGraphic" in2="effect1_dropShadow" result="shape"></feBlend>
</filter>
</defs>
</svg>